<?xml version="1.0" encoding="UTF-8" standalone="no"?>
<!-- Created with Inkscape (http://www.inkscape.org/) -->

<svg
   width="194.35983"
   height="49.058788"
   viewBox="0 0 194.35983 49.058788"
   version="1.1"
   id="svg1"
   xmlns="http://www.w3.org/2000/svg"
   xmlns:svg="http://www.w3.org/2000/svg">
  <defs
     id="defs1" />
  <g
     id="layer1"
     transform="translate(-152.3125,-225.47821)">
    <path
       d="m 153.62451,228.83985 20.65436,27.99608 a 1.5199364,1.5199364 71.790804 0 1 0.29684,0.90235 l 0,16.2793 a 0.5,0.5 45 0 0 0.5,0.5 h 7.51172 a 0.5,0.5 135 0 0 0.5,-0.5 l 0,-16.21485 a 1.5189659,1.5189659 108.22006 0 1 0.29699,-0.90224 l 20.71852,-28.06075 a 0.25234847,0.25234847 63.220061 0 0 -0.20301,-0.40224 h -9.17578 a 1.0296861,1.0296861 154.09949 0 0 -0.8092,0.39293 l -14.74293,18.73562 a 0.3958673,0.3958673 179.82911 0 1 -0.62074,0.002 l -14.9277,-18.73932 a 1.0375505,1.0375505 25.729614 0 0 -0.81154,-0.39108 l -8.98437,0 a 0.25246746,0.25246746 116.7908 0 0 -0.20316,0.40235 z"
       style="font-size:64px;font-family:Orbitron;-inkscape-font-specification:'Orbitron, @wght=700';font-variation-settings:'wght' 700;fill:#ffffff"
       id="path18"
       transform="matrix(1.063723,0,0,1.063723,-11.04898,-17.489223)" />
    <path
       d="m 204.6097,237.39844 c -1.62133,0 -3.09335,0.40417 -4.41601,1.21484 -1.32267,0.81067 -2.39051,1.87851 -3.20118,3.20117 -0.81066,1.32267 -1.21484,2.79469 -1.21484,4.41602 v 19.45508 c 0,1.62133 0.40418,3.09335 1.21484,4.41601 0.81067,1.32267 1.87851,2.39051 3.20118,3.20117 1.32266,0.81067 2.79468,1.21485 4.41601,1.21485 h 20.03125 c 1.664,0 3.1578,-0.40418 4.48047,-1.21485 1.32267,-0.81066 2.36677,-1.8785 3.13477,-3.20117 0.81066,-1.32266 1.21679,-2.79468 1.21679,-4.41601 v -19.45508 c 0,-1.62133 -0.40613,-3.09335 -1.21679,-4.41602 -0.768,-1.32266 -1.83389,-2.3905 -3.19922,-3.20117 -1.32267,-0.81067 -2.79469,-1.21484 -4.41602,-1.21484 z m 0.31836,8.38281 h 19.39258 c 0.21333,0 0.38372,0.0872 0.51172,0.25781 0.17066,0.128 0.25586,0.29839 0.25586,0.51172 v 18.81641 c 0,0.21334 -0.0852,0.40356 -0.25586,0.57422 -0.128,0.128 -0.29839,0.19336 -0.51172,0.19336 h -19.39258 c -0.21333,0 -0.40355,-0.0654 -0.57422,-0.19336 -0.128,-0.17067 -0.19336,-0.36089 -0.19336,-0.57422 v -18.81641 c 0,-0.21333 0.0654,-0.38372 0.19336,-0.51172 0.17067,-0.17066 0.36089,-0.25781 0.57422,-0.25781 z"
       style="font-size:64px;font-family:Orbitron;-inkscape-font-specification:'Orbitron, @wght=700';font-variation-settings:'wght' 700;fill:#ffffff"
       id="path20" />
    <path
       d="m 235.47767,237.89775 v 36.12109 a 0.5,0.5 45 0 0 0.5,0.5 h 7.38476 a 0.5,0.5 135 0 0 0.5,-0.5 v -26.96875 c 0,-0.27614 -0.0218,-0.75735 0.15012,-0.96625 0.0215,-0.0262 0.20356,-0.23457 0.47046,-0.28718 0.08,-0.0158 0.37086,-0.0141 0.647,-0.0141 h 12.3125 c 0.27614,0 0.76256,-0.009 0.94998,0.18352 0.0367,0.0376 0.27695,0.223 0.31162,0.48914 0.007,0.0521 0.006,0.31877 0.006,0.59491 v 26.96875 a 0.5,0.5 45 0 0 0.5,0.5 h 7.44726 a 0.5,0.5 135 0 0 0.5,-0.5 v -26.96875 c 0,-0.27614 -0.0218,-0.75735 0.15012,-0.96625 0.0215,-0.0262 0.20356,-0.23457 0.47046,-0.28718 0.08,-0.0158 0.37086,-0.0141 0.647,-0.0141 l 12.24805,0 c 0.27614,0 0.7475,-0.004 0.96471,0.15883 0.0654,0.0489 0.32667,0.24769 0.36134,0.51383 0.007,0.0521 0.006,0.31877 0.006,0.59491 v 26.96875 a 0.5,0.5 45 0 0 0.5,0.5 h 7.32031 a 0.5,0.5 135 0 0 0.5,-0.5 v -27.28906 c 0,-0.27614 0.001,-0.72404 -0.013,-0.99977 -0.0661,-1.25359 -0.38352,-2.41441 -0.95333,-3.48242 -0.12997,-0.2436 -0.3597,-0.62831 -0.51091,-0.85933 -0.64844,-0.99069 -1.46693,-1.82435 -2.45479,-2.50171 -0.22773,-0.15614 -0.6097,-0.39051 -0.85344,-0.5202 -1.07539,-0.57217 -2.25778,-0.89115 -3.54672,-0.95613 -0.27576,-0.0139 -0.72365,-0.0125 -0.99979,-0.0125 h -45.01562 a 0.5,0.5 135 0 0 -0.5,0.5 z"
       style="font-size:64px;font-family:Orbitron;-inkscape-font-specification:'Orbitron, @wght=700';font-variation-settings:'wght' 700;fill:#ffa3a3"
       id="path10" />
    <path
       d="m 292.32767,225.97821 v 7.19922 a 0.5,0.5 45 0 0 0.5,0.5 h 7.91406 v -7.69922 a 0.5,0.5 45 0 0 -0.5,-0.5 h -7.41406 a 0.5,0.5 135 0 0 -0.5,0.5 z"
       style="font-size:64px;font-family:Orbitron;-inkscape-font-specification:'Orbitron, @wght=700';font-variation-settings:'wght' 700;fill:#ffa3a3;stroke-width:0.986937"
       id="path9" />
    <path
       d="m 292.32767,237.89775 v 36.12109 a 0.5,0.5 45 0 0 0.5,0.5 h 7.88281 v -36.62109 a 0.5,0.5 45 0 0 -0.5,-0.5 h -7.38281 a 0.5,0.5 135 0 0 -0.5,0.5 z"
       style="font-size:64px;font-family:Orbitron;-inkscape-font-specification:'Orbitron, @wght=700';font-variation-settings:'wght' 700;fill:#ffa3a3"
       id="path8" />
    <path
       d="m 313.30115,250.7326 c -5.55086,6.77302 -11.10174,13.54603 -16.65261,20.31904 -0.2312,0.28218 -0.41871,0.80663 -0.41871,1.17135 v 1.63826 a 0.66078036,0.66045225 0 0 0 0.66077,0.66045 h 10.68869 a 1.3882801,1.3875908 0 0 0 1.07745,-0.51261 l 11.85051,-14.57799 c 0.23013,-0.2831 0.22804,-0.74037 -0.005,-1.02131 -2.12042,-2.55979 -4.24082,-5.11959 -6.36124,-7.67935 -0.23274,-0.28099 -0.60887,-0.28001 -0.84013,0.002 z"
       style="font-size:64px;font-family:Orbitron;-inkscape-font-specification:'Orbitron, @wght=700';font-variation-settings:'wght' 700;fill:#ffa3a3;stroke-width:1.32125;stroke-dasharray:none"
       id="path7" />
    <path
       d="m 334.20011,225.99207 -11.81383,13.92997 a 0.7833227,0.78293374 0 0 0 -0.002,1.00964 l 6.33116,7.53809 a 0.55881709,0.55853961 0 0 0 0.85337,0.003 l 16.64072,-19.52268 a 1.7945238,1.7936327 0 0 0 0.42852,-1.16317 v -1.63826 a 0.66078036,0.66045225 0 0 0 -0.66078,-0.66044 h -10.68863 a 1.426361,1.4256528 0 0 0 -1.08807,0.5038 z"
       style="font-size:64px;font-family:Orbitron;-inkscape-font-specification:'Orbitron, @wght=700';font-variation-settings:'wght' 700;fill:#ffa3a3;stroke-width:1.32125;stroke-dasharray:none"
       id="path6" />
    <path
       d="m 296.25828,226.13947 c -0.0221,0.90692 -0.22069,1.87868 0.21723,2.61616 0.18503,0.31161 0.63044,0.71324 0.86716,0.99096 9.6408,11.31285 19.34908,22.58636 28.66358,34.13403 0.22885,0.28369 0.60134,0.74292 0.83233,1.02545 l 7.45565,9.11935 a 1.3937205,1.3936986 0 0 0 1.07898,0.51158 h 10.60349 c 0.36492,0 0.62423,-0.29508 0.63297,-0.65956 0.0219,-0.90641 0.21564,-1.87437 -0.21195,-2.62033 -0.18026,-0.3145 -0.61592,-0.72601 -0.84676,-1.00869 -9.97313,-12.2116 -19.96066,-24.41202 -30.20889,-36.39472 -0.2371,-0.2772 -0.62077,-0.72753 -0.85674,-1.00589 l -5.81815,-6.86362 a 1.426376,1.4263537 0 0 0 -1.08802,-0.50407 L 296.89061,225.48 c -0.36491,-1e-5 -0.62334,0.29501 -0.63233,0.65947 z"
       style="font-size:64px;font-family:Orbitron;-inkscape-font-specification:'Orbitron, @wght=700';font-variation-settings:'wght' 700;fill:#ffa3a3;stroke-width:1.32158;stroke-dasharray:none"
       id="path5" />
  </g>
</svg>
