<svg xmlns="http://www.w3.org/2000/svg" width="1980" height="514" shape-rendering="geometricPrecision">
<path d="M 1419.00 7.00 L 1419.00 94.00 L 1426.00 101.00 L 1427.00 101.00 L 1435.00 109.00 L 1527.00 109.00 L 1528.00 110.00 L 1528.00 111.00 L 1535.00 118.00 L 1535.00 119.00 L 1539.00 123.00 L 1539.00 124.00 L 1543.00 128.00 L 1543.00 129.00 L 1551.00 137.00 L 1551.00 138.00 L 1555.00 142.00 L 1555.00 143.00 L 1559.00 147.00 L 1559.00 148.00 L 1566.00 155.00 L 1566.00 156.00 L 1570.00 160.00 L 1570.00 161.00 L 1577.00 168.00 L 1577.00 169.00 L 1582.00 174.00 L 1582.00 175.00 L 1586.00 179.00 L 1586.00 180.00 L 1593.00 187.00 L 1593.00 188.00 L 1597.00 192.00 L 1597.00 193.00 L 1602.00 198.00 L 1602.00 199.00 L 1607.00 204.00 L 1607.00 205.00 L 1613.00 211.00 L 1613.00 212.00 L 1617.00 216.00 L 1617.00 217.00 L 1620.00 220.00 L 1620.00 221.00 L 1628.00 229.00 L 1628.00 230.00 L 1632.00 234.00 L 1632.00 235.00 L 1639.00 242.00 L 1639.00 243.00 L 1644.00 248.00 L 1644.00 249.00 L 1648.00 253.00 L 1648.00 254.00 L 1652.00 258.00 L 1652.00 259.00 L 1657.00 264.00 L 1657.00 265.00 L 1662.00 270.00 L 1662.00 271.00 L 1667.00 276.00 L 1667.00 277.00 L 1672.00 282.00 L 1672.00 283.00 L 1678.00 289.00 L 1678.00 290.00 L 1683.00 295.00 L 1683.00 296.00 L 1688.00 301.00 L 1688.00 302.00 L 1693.00 307.00 L 1693.00 308.00 L 1698.00 313.00 L 1698.00 314.00 L 1703.00 319.00 L 1703.00 320.00 L 1708.00 325.00 L 1708.00 326.00 L 1713.00 331.00 L 1713.00 332.00 L 1718.00 337.00 L 1718.00 338.00 L 1723.00 343.00 L 1723.00 344.00 L 1728.00 349.00 L 1728.00 350.00 L 1733.00 355.00 L 1733.00 356.00 L 1738.00 361.00 L 1738.00 362.00 L 1743.00 367.00 L 1743.00 368.00 L 1747.00 372.00 L 1747.00 373.00 L 1751.00 377.00 L 1751.00 378.00 L 1758.00 385.00 L 1758.00 386.00 L 1763.00 391.00 L 1763.00 392.00 L 1768.00 397.00 L 1768.00 398.00 L 1775.00 405.00 L 1775.00 406.00 L 1780.00 411.00 L 1780.00 412.00 L 1785.00 417.00 L 1785.00 418.00 L 1791.00 424.00 L 1791.00 425.00 L 1797.00 431.00 L 1797.00 432.00 L 1800.00 435.00 L 1800.00 436.00 L 1808.00 444.00 L 1808.00 445.00 L 1813.00 450.00 L 1813.00 451.00 L 1817.00 455.00 L 1817.00 456.00 L 1825.00 464.00 L 1825.00 465.00 L 1829.00 469.00 L 1829.00 470.00 L 1837.00 478.00 L 1837.00 479.00 L 1841.00 483.00 L 1841.00 484.00 L 1847.00 490.00 L 1847.00 491.00 L 1853.00 497.00 L 1853.00 498.00 L 1858.00 503.00 L 1858.00 504.00 L 1860.00 506.00 L 1975.00 506.00 L 1975.00 466.00 L 1972.00 463.00 L 1972.00 462.00 L 1967.00 457.00 L 1967.00 456.00 L 1963.00 452.00 L 1963.00 451.00 L 1959.00 447.00 L 1959.00 446.00 L 1958.00 446.00 L 1957.00 445.00 L 1957.00 444.00 L 1951.00 438.00 L 1951.00 437.00 L 1947.00 433.00 L 1947.00 432.00 L 1940.00 425.00 L 1940.00 424.00 L 1935.00 419.00 L 1935.00 418.00 L 1931.00 414.00 L 1931.00 413.00 L 1923.00 405.00 L 1923.00 404.00 L 1919.00 400.00 L 1919.00 399.00 L 1912.00 392.00 L 1912.00 391.00 L 1907.00 386.00 L 1907.00 385.00 L 1903.00 381.00 L 1903.00 380.00 L 1896.00 373.00 L 1896.00 372.00 L 1892.00 368.00 L 1892.00 367.00 L 1886.00 361.00 L 1886.00 360.00 L 1880.00 354.00 L 1880.00 353.00 L 1875.00 348.00 L 1875.00 347.00 L 1871.00 343.00 L 1871.00 342.00 L 1864.00 335.00 L 1864.00 334.00 L 1859.00 329.00 L 1859.00 328.00 L 1856.00 325.00 L 1856.00 324.00 L 1848.00 316.00 L 1848.00 315.00 L 1843.00 310.00 L 1843.00 309.00 L 1839.00 305.00 L 1839.00 304.00 L 1831.00 296.00 L 1831.00 295.00 L 1828.00 292.00 L 1828.00 291.00 L 1820.00 283.00 L 1820.00 282.00 L 1815.00 277.00 L 1815.00 276.00 L 1806.00 267.00 L 1806.00 266.00 L 1802.00 262.00 L 1802.00 261.00 L 1797.00 256.00 L 1797.00 255.00 L 1792.00 250.00 L 1792.00 249.00 L 1788.00 245.00 L 1788.00 244.00 L 1783.00 239.00 L 1783.00 238.00 L 1778.00 233.00 L 1778.00 232.00 L 1773.00 227.00 L 1773.00 226.00 L 1769.00 222.00 L 1769.00 221.00 L 1764.00 216.00 L 1764.00 215.00 L 1759.00 210.00 L 1759.00 209.00 L 1755.00 205.00 L 1755.00 204.00 L 1750.00 199.00 L 1750.00 198.00 L 1745.00 193.00 L 1745.00 192.00 L 1740.00 187.00 L 1740.00 186.00 L 1736.00 182.00 L 1736.00 181.00 L 1731.00 176.00 L 1731.00 175.00 L 1726.00 170.00 L 1726.00 169.00 L 1721.00 164.00 L 1721.00 163.00 L 1716.00 158.00 L 1716.00 157.00 L 1712.00 153.00 L 1712.00 152.00 L 1709.00 149.00 L 1709.00 148.00 L 1704.00 143.00 L 1704.00 142.00 L 1697.00 135.00 L 1697.00 134.00 L 1692.00 129.00 L 1692.00 128.00 L 1689.00 125.00 L 1689.00 124.00 L 1681.00 116.00 L 1681.00 115.00 L 1676.00 110.00 L 1676.00 109.00 L 1672.00 105.00 L 1672.00 104.00 L 1664.00 96.00 L 1664.00 95.00 L 1661.00 92.00 L 1661.00 91.00 L 1653.00 83.00 L 1653.00 82.00 L 1648.00 77.00 L 1648.00 76.00 L 1644.00 72.00 L 1644.00 71.00 L 1637.00 64.00 L 1637.00 63.00 L 1633.00 59.00 L 1633.00 58.00 L 1627.00 52.00 L 1627.00 51.00 L 1621.00 45.00 L 1621.00 44.00 L 1616.00 39.00 L 1616.00 38.00 L 1612.00 34.00 L 1612.00 33.00 L 1605.00 26.00 L 1605.00 25.00 L 1600.00 20.00 L 1600.00 19.00 L 1597.00 16.00 L 1597.00 15.00 L 1588.00 6.00 L 1475.00 6.00 L 1474.00 7.00 Z" fill="#FFA3A3" stroke="none" />
<path d="M 1974.00 6.00 L 1861.00 6.00 L 1856.00 11.00 L 1856.00 12.00 L 1852.00 16.00 L 1852.00 17.00 L 1845.00 24.00 L 1845.00 25.00 L 1841.00 29.00 L 1841.00 30.00 L 1837.00 34.00 L 1837.00 35.00 L 1829.00 43.00 L 1829.00 44.00 L 1825.00 48.00 L 1825.00 49.00 L 1821.00 53.00 L 1821.00 54.00 L 1814.00 61.00 L 1814.00 62.00 L 1810.00 66.00 L 1810.00 67.00 L 1803.00 74.00 L 1803.00 75.00 L 1799.00 79.00 L 1799.00 80.00 L 1795.00 84.00 L 1795.00 85.00 L 1787.00 93.00 L 1787.00 94.00 L 1784.00 97.00 L 1784.00 98.00 L 1779.00 103.00 L 1779.00 104.00 L 1775.00 108.00 L 1775.00 109.00 L 1769.00 115.00 L 1769.00 116.00 L 1764.00 121.00 L 1764.00 122.00 L 1760.00 126.00 L 1760.00 127.00 L 1753.00 134.00 L 1753.00 135.00 L 1749.00 139.00 L 1749.00 140.00 L 1744.00 145.00 L 1744.00 146.00 L 1737.00 153.00 L 1737.00 156.00 L 1741.00 160.00 L 1741.00 161.00 L 1746.00 166.00 L 1746.00 167.00 L 1751.00 172.00 L 1751.00 173.00 L 1756.00 178.00 L 1756.00 179.00 L 1761.00 184.00 L 1761.00 185.00 L 1766.00 190.00 L 1766.00 191.00 L 1771.00 196.00 L 1771.00 197.00 L 1776.00 202.00 L 1776.00 203.00 L 1781.00 208.00 L 1781.00 209.00 L 1786.00 214.00 L 1786.00 215.00 L 1791.00 220.00 L 1791.00 221.00 L 1796.00 226.00 L 1796.00 227.00 L 1801.00 232.00 L 1801.00 233.00 L 1806.00 238.00 L 1806.00 239.00 L 1808.00 241.00 L 1811.00 241.00 L 1813.00 239.00 L 1813.00 238.00 L 1817.00 234.00 L 1817.00 233.00 L 1825.00 225.00 L 1825.00 224.00 L 1829.00 220.00 L 1829.00 219.00 L 1833.00 215.00 L 1833.00 214.00 L 1841.00 206.00 L 1841.00 205.00 L 1845.00 201.00 L 1845.00 200.00 L 1850.00 195.00 L 1850.00 194.00 L 1856.00 188.00 L 1856.00 187.00 L 1860.00 183.00 L 1860.00 182.00 L 1866.00 176.00 L 1866.00 175.00 L 1872.00 169.00 L 1872.00 168.00 L 1876.00 164.00 L 1876.00 163.00 L 1881.00 158.00 L 1881.00 157.00 L 1888.00 150.00 L 1888.00 149.00 L 1892.00 145.00 L 1892.00 144.00 L 1897.00 139.00 L 1897.00 138.00 L 1904.00 131.00 L 1904.00 130.00 L 1908.00 126.00 L 1908.00 125.00 L 1914.00 119.00 L 1914.00 118.00 L 1919.00 113.00 L 1919.00 112.00 L 1923.00 108.00 L 1923.00 107.00 L 1931.00 99.00 L 1931.00 98.00 L 1935.00 94.00 L 1935.00 93.00 L 1940.00 88.00 L 1940.00 87.00 L 1947.00 80.00 L 1947.00 79.00 L 1951.00 75.00 L 1951.00 74.00 L 1956.00 69.00 L 1956.00 68.00 L 1962.00 62.00 L 1962.00 61.00 L 1967.00 56.00 L 1967.00 55.00 L 1971.00 51.00 L 1971.00 50.00 L 1975.00 46.00 L 1975.00 7.00 Z" fill="#FFA3A3" stroke="none" />
<path d="M 15.00 39.00 L 15.00 43.00 L 17.00 45.00 L 17.00 46.00 L 20.00 49.00 L 20.00 50.00 L 23.00 53.00 L 23.00 54.00 L 29.00 61.00 L 29.00 62.00 L 31.00 64.00 L 31.00 65.00 L 34.00 68.00 L 34.00 69.00 L 37.00 72.00 L 37.00 73.00 L 43.00 80.00 L 43.00 81.00 L 45.00 83.00 L 45.00 84.00 L 48.00 87.00 L 48.00 88.00 L 51.00 91.00 L 51.00 92.00 L 54.00 95.00 L 54.00 96.00 L 60.00 103.00 L 60.00 104.00 L 62.00 106.00 L 62.00 107.00 L 65.00 110.00 L 65.00 111.00 L 68.00 114.00 L 68.00 115.00 L 71.00 118.00 L 71.00 119.00 L 77.00 126.00 L 77.00 127.00 L 79.00 129.00 L 79.00 130.00 L 82.00 133.00 L 82.00 134.00 L 85.00 137.00 L 85.00 138.00 L 91.00 145.00 L 91.00 146.00 L 93.00 148.00 L 93.00 149.00 L 96.00 152.00 L 96.00 153.00 L 99.00 156.00 L 99.00 157.00 L 102.00 160.00 L 102.00 161.00 L 108.00 168.00 L 108.00 169.00 L 110.00 171.00 L 110.00 172.00 L 113.00 175.00 L 113.00 176.00 L 116.00 179.00 L 116.00 180.00 L 119.00 183.00 L 119.00 184.00 L 125.00 191.00 L 125.00 192.00 L 127.00 194.00 L 127.00 195.00 L 130.00 198.00 L 130.00 199.00 L 133.00 202.00 L 133.00 203.00 L 139.00 210.00 L 139.00 211.00 L 141.00 213.00 L 141.00 214.00 L 144.00 217.00 L 144.00 218.00 L 147.00 221.00 L 147.00 222.00 L 150.00 225.00 L 150.00 226.00 L 156.00 233.00 L 156.00 234.00 L 158.00 236.00 L 158.00 237.00 L 161.00 240.00 L 161.00 241.00 L 164.00 244.00 L 164.00 245.00 L 170.00 252.00 L 170.00 253.00 L 172.00 255.00 L 172.00 256.00 L 175.00 259.00 L 175.00 260.00 L 178.00 263.00 L 178.00 264.00 L 181.00 267.00 L 181.00 268.00 L 187.00 275.00 L 187.00 276.00 L 189.00 278.00 L 189.00 279.00 L 192.00 282.00 L 192.00 283.00 L 195.00 286.00 L 195.00 287.00 L 198.00 290.00 L 198.00 291.00 L 204.00 298.00 L 204.00 299.00 L 206.00 301.00 L 206.00 302.00 L 209.00 305.00 L 209.00 306.00 L 212.00 309.00 L 212.00 310.00 L 215.00 313.00 L 215.00 314.00 L 218.00 317.00 L 218.00 318.00 L 220.00 320.00 L 220.00 321.00 L 223.00 324.00 L 223.00 325.00 L 226.00 328.00 L 226.00 329.00 L 229.00 332.00 L 229.00 333.00 L 230.00 334.00 L 230.00 506.00 L 333.00 506.00 L 333.00 334.00 L 334.00 333.00 L 334.00 332.00 L 337.00 329.00 L 337.00 328.00 L 340.00 325.00 L 340.00 324.00 L 343.00 321.00 L 343.00 320.00 L 346.00 317.00 L 346.00 316.00 L 348.00 314.00 L 348.00 313.00 L 351.00 310.00 L 351.00 309.00 L 354.00 306.00 L 354.00 305.00 L 357.00 302.00 L 357.00 301.00 L 363.00 294.00 L 363.00 293.00 L 365.00 291.00 L 365.00 290.00 L 368.00 287.00 L 368.00 286.00 L 371.00 283.00 L 371.00 282.00 L 374.00 279.00 L 374.00 278.00 L 380.00 271.00 L 380.00 270.00 L 382.00 268.00 L 382.00 267.00 L 385.00 264.00 L 385.00 263.00 L 388.00 260.00 L 388.00 259.00 L 391.00 256.00 L 391.00 255.00 L 397.00 248.00 L 397.00 247.00 L 399.00 245.00 L 399.00 244.00 L 402.00 241.00 L 402.00 240.00 L 405.00 237.00 L 405.00 236.00 L 408.00 233.00 L 408.00 232.00 L 414.00 225.00 L 414.00 224.00 L 416.00 222.00 L 416.00 221.00 L 419.00 218.00 L 419.00 217.00 L 422.00 214.00 L 422.00 213.00 L 425.00 210.00 L 425.00 209.00 L 431.00 202.00 L 431.00 201.00 L 433.00 199.00 L 433.00 198.00 L 436.00 195.00 L 436.00 194.00 L 439.00 191.00 L 439.00 190.00 L 442.00 187.00 L 442.00 186.00 L 448.00 179.00 L 448.00 178.00 L 450.00 176.00 L 450.00 175.00 L 453.00 172.00 L 453.00 171.00 L 456.00 168.00 L 456.00 167.00 L 462.00 160.00 L 462.00 159.00 L 464.00 157.00 L 464.00 156.00 L 467.00 153.00 L 467.00 152.00 L 470.00 149.00 L 470.00 148.00 L 473.00 145.00 L 473.00 144.00 L 479.00 137.00 L 479.00 136.00 L 481.00 134.00 L 481.00 133.00 L 484.00 130.00 L 484.00 129.00 L 487.00 126.00 L 487.00 125.00 L 490.00 122.00 L 490.00 121.00 L 496.00 114.00 L 496.00 113.00 L 498.00 111.00 L 498.00 110.00 L 501.00 107.00 L 501.00 106.00 L 504.00 103.00 L 504.00 102.00 L 507.00 99.00 L 507.00 98.00 L 513.00 91.00 L 513.00 90.00 L 515.00 88.00 L 515.00 87.00 L 518.00 84.00 L 518.00 83.00 L 521.00 80.00 L 521.00 79.00 L 524.00 76.00 L 524.00 75.00 L 530.00 68.00 L 530.00 67.00 L 532.00 65.00 L 532.00 64.00 L 535.00 61.00 L 535.00 60.00 L 538.00 57.00 L 538.00 56.00 L 541.00 53.00 L 541.00 52.00 L 547.00 45.00 L 547.00 44.00 L 548.00 43.00 L 548.00 39.00 L 425.00 39.00 L 418.00 47.00 L 418.00 48.00 L 411.00 56.00 L 411.00 57.00 L 407.00 61.00 L 407.00 62.00 L 403.00 66.00 L 403.00 67.00 L 399.00 71.00 L 399.00 72.00 L 392.00 80.00 L 392.00 81.00 L 388.00 85.00 L 388.00 86.00 L 384.00 90.00 L 384.00 91.00 L 380.00 95.00 L 380.00 96.00 L 377.00 99.00 L 377.00 100.00 L 373.00 104.00 L 373.00 105.00 L 369.00 109.00 L 369.00 110.00 L 365.00 114.00 L 365.00 115.00 L 357.00 124.00 L 357.00 125.00 L 354.00 128.00 L 354.00 129.00 L 350.00 133.00 L 350.00 134.00 L 346.00 138.00 L 346.00 139.00 L 338.00 148.00 L 338.00 149.00 L 335.00 152.00 L 335.00 153.00 L 331.00 157.00 L 331.00 158.00 L 327.00 162.00 L 327.00 163.00 L 319.00 172.00 L 319.00 173.00 L 316.00 176.00 L 316.00 177.00 L 312.00 181.00 L 312.00 182.00 L 308.00 186.00 L 308.00 187.00 L 304.00 191.00 L 304.00 192.00 L 296.00 201.00 L 296.00 202.00 L 293.00 205.00 L 293.00 206.00 L 289.00 210.00 L 289.00 211.00 L 281.00 220.00 L 280.00 219.00 L 280.00 218.00 L 276.00 214.00 L 276.00 213.00 L 272.00 209.00 L 272.00 208.00 L 268.00 204.00 L 268.00 203.00 L 264.00 199.00 L 264.00 198.00 L 260.00 194.00 L 260.00 193.00 L 256.00 189.00 L 256.00 188.00 L 252.00 184.00 L 252.00 183.00 L 249.00 180.00 L 249.00 179.00 L 245.00 175.00 L 245.00 174.00 L 241.00 170.00 L 241.00 169.00 L 237.00 165.00 L 237.00 164.00 L 233.00 160.00 L 233.00 159.00 L 229.00 155.00 L 229.00 154.00 L 225.00 150.00 L 225.00 149.00 L 221.00 145.00 L 221.00 144.00 L 213.00 135.00 L 213.00 134.00 L 210.00 131.00 L 210.00 130.00 L 206.00 126.00 L 206.00 125.00 L 202.00 121.00 L 202.00 120.00 L 198.00 116.00 L 198.00 115.00 L 194.00 111.00 L 194.00 110.00 L 190.00 106.00 L 190.00 105.00 L 186.00 101.00 L 186.00 100.00 L 178.00 91.00 L 178.00 90.00 L 175.00 87.00 L 175.00 86.00 L 171.00 82.00 L 171.00 81.00 L 167.00 77.00 L 167.00 76.00 L 163.00 72.00 L 163.00 71.00 L 159.00 67.00 L 159.00 66.00 L 155.00 62.00 L 155.00 61.00 L 151.00 57.00 L 151.00 56.00 L 147.00 52.00 L 147.00 51.00 L 143.00 47.00 L 143.00 46.00 L 139.00 42.00 L 139.00 41.00 L 137.00 39.00 Z" fill="#FFFFFF" stroke="none" />
<path d="M 481.00 153.00 L 473.00 161.00 L 473.00 162.00 L 468.00 167.00 L 468.00 168.00 L 466.00 170.00 L 466.00 171.00 L 464.00 173.00 L 464.00 174.00 L 462.00 176.00 L 462.00 177.00 L 461.00 178.00 L 461.00 179.00 L 459.00 181.00 L 459.00 182.00 L 457.00 185.00 L 457.00 187.00 L 455.00 190.00 L 455.00 192.00 L 454.00 193.00 L 454.00 195.00 L 453.00 196.00 L 453.00 198.00 L 452.00 199.00 L 452.00 202.00 L 451.00 203.00 L 451.00 208.00 L 450.00 209.00 L 450.00 219.00 L 449.00 220.00 L 449.00 416.00 L 450.00 417.00 L 450.00 427.00 L 451.00 428.00 L 451.00 432.00 L 452.00 433.00 L 452.00 437.00 L 453.00 438.00 L 453.00 440.00 L 454.00 441.00 L 454.00 443.00 L 455.00 444.00 L 455.00 446.00 L 456.00 447.00 L 456.00 448.00 L 457.00 449.00 L 457.00 450.00 L 458.00 451.00 L 458.00 452.00 L 459.00 453.00 L 459.00 454.00 L 460.00 455.00 L 460.00 456.00 L 461.00 457.00 L 461.00 458.00 L 462.00 459.00 L 462.00 460.00 L 464.00 462.00 L 464.00 463.00 L 466.00 465.00 L 466.00 466.00 L 469.00 469.00 L 469.00 470.00 L 473.00 474.00 L 473.00 475.00 L 480.00 482.00 L 481.00 482.00 L 486.00 487.00 L 487.00 487.00 L 490.00 490.00 L 491.00 490.00 L 493.00 492.00 L 494.00 492.00 L 496.00 494.00 L 497.00 494.00 L 498.00 495.00 L 499.00 495.00 L 500.00 496.00 L 501.00 496.00 L 502.00 497.00 L 503.00 497.00 L 504.00 498.00 L 505.00 498.00 L 506.00 499.00 L 507.00 499.00 L 510.00 501.00 L 512.00 501.00 L 513.00 502.00 L 515.00 502.00 L 516.00 503.00 L 519.00 503.00 L 520.00 504.00 L 523.00 504.00 L 524.00 505.00 L 529.00 505.00 L 530.00 506.00 L 752.00 506.00 L 753.00 505.00 L 757.00 505.00 L 758.00 504.00 L 762.00 504.00 L 763.00 503.00 L 765.00 503.00 L 766.00 502.00 L 768.00 502.00 L 769.00 501.00 L 771.00 501.00 L 772.00 500.00 L 774.00 500.00 L 775.00 499.00 L 776.00 499.00 L 777.00 498.00 L 778.00 498.00 L 779.00 497.00 L 780.00 497.00 L 781.00 496.00 L 782.00 496.00 L 783.00 495.00 L 784.00 495.00 L 786.00 493.00 L 787.00 493.00 L 789.00 491.00 L 790.00 491.00 L 792.00 489.00 L 793.00 489.00 L 796.00 486.00 L 797.00 486.00 L 811.00 472.00 L 811.00 471.00 L 814.00 468.00 L 814.00 467.00 L 816.00 465.00 L 816.00 464.00 L 818.00 462.00 L 818.00 461.00 L 820.00 459.00 L 820.00 458.00 L 821.00 457.00 L 821.00 456.00 L 822.00 455.00 L 822.00 454.00 L 823.00 453.00 L 823.00 452.00 L 825.00 449.00 L 825.00 447.00 L 826.00 446.00 L 826.00 445.00 L 827.00 444.00 L 827.00 442.00 L 828.00 441.00 L 828.00 438.00 L 829.00 437.00 L 829.00 434.00 L 830.00 433.00 L 830.00 428.00 L 831.00 427.00 L 831.00 418.00 L 832.00 417.00 L 832.00 219.00 L 831.00 218.00 L 831.00 209.00 L 830.00 208.00 L 830.00 203.00 L 829.00 202.00 L 829.00 199.00 L 828.00 198.00 L 828.00 196.00 L 827.00 195.00 L 827.00 193.00 L 826.00 192.00 L 826.00 190.00 L 825.00 189.00 L 825.00 187.00 L 824.00 186.00 L 824.00 185.00 L 823.00 184.00 L 823.00 183.00 L 822.00 182.00 L 822.00 181.00 L 821.00 180.00 L 821.00 179.00 L 820.00 178.00 L 820.00 177.00 L 818.00 175.00 L 818.00 174.00 L 817.00 173.00 L 817.00 172.00 L 815.00 170.00 L 815.00 169.00 L 812.00 166.00 L 812.00 165.00 L 808.00 161.00 L 808.00 160.00 L 800.00 152.00 L 799.00 152.00 L 795.00 148.00 L 794.00 148.00 L 791.00 145.00 L 790.00 145.00 L 788.00 143.00 L 787.00 143.00 L 786.00 142.00 L 785.00 142.00 L 783.00 140.00 L 782.00 140.00 L 781.00 139.00 L 780.00 139.00 L 777.00 137.00 L 775.00 137.00 L 772.00 135.00 L 770.00 135.00 L 769.00 134.00 L 767.00 134.00 L 766.00 133.00 L 763.00 133.00 L 762.00 132.00 L 759.00 132.00 L 758.00 131.00 L 754.00 131.00 L 753.00 130.00 L 741.00 130.00 L 740.00 129.00 L 541.00 129.00 L 540.00 130.00 L 529.00 130.00 L 528.00 131.00 L 524.00 131.00 L 523.00 132.00 L 519.00 132.00 L 518.00 133.00 L 516.00 133.00 L 515.00 134.00 L 513.00 134.00 L 512.00 135.00 L 510.00 135.00 L 509.00 136.00 L 508.00 136.00 L 505.00 138.00 L 503.00 138.00 L 502.00 139.00 L 501.00 139.00 L 499.00 141.00 L 498.00 141.00 L 497.00 142.00 L 496.00 142.00 L 494.00 144.00 L 493.00 144.00 L 491.00 146.00 L 490.00 146.00 L 488.00 148.00 L 487.00 148.00 L 482.00 153.00 Z" fill="#FFFFFF" stroke="none" />
<path d="M 848.00 130.00 L 848.00 506.00 L 950.00 506.00 L 950.00 232.00 L 951.00 231.00 L 1070.00 231.00 L 1071.00 232.00 L 1071.00 506.00 L 1173.00 506.00 L 1173.00 232.00 L 1174.00 231.00 L 1293.00 231.00 L 1294.00 232.00 L 1294.00 506.00 L 1395.00 506.00 L 1395.00 213.00 L 1394.00 212.00 L 1394.00 206.00 L 1393.00 205.00 L 1392.00 197.00 L 1384.00 178.00 L 1372.00 161.00 L 1358.00 148.00 L 1349.00 142.00 L 1346.00 141.00 L 1344.00 139.00 L 1340.00 137.00 L 1338.00 137.00 L 1335.00 135.00 L 1333.00 135.00 L 1326.00 132.00 L 1317.00 131.00 L 1316.00 130.00 L 1305.00 130.00 L 1304.00 129.00 L 1131.00 129.00 L 1130.00 130.00 L 1104.00 130.00 L 1103.00 129.00 L 849.00 129.00 Z" fill="#FFA3A3" stroke="none" />
<path d="M 1421.00 135.00 L 1420.00 136.00 L 1419.00 136.00 L 1419.00 506.00 L 1589.00 506.00 L 1592.00 503.00 L 1592.00 502.00 L 1598.00 496.00 L 1598.00 495.00 L 1602.00 491.00 L 1602.00 490.00 L 1607.00 485.00 L 1607.00 484.00 L 1613.00 478.00 L 1613.00 477.00 L 1618.00 472.00 L 1618.00 471.00 L 1622.00 467.00 L 1622.00 466.00 L 1629.00 459.00 L 1629.00 458.00 L 1633.00 454.00 L 1633.00 453.00 L 1637.00 449.00 L 1637.00 448.00 L 1645.00 440.00 L 1645.00 439.00 L 1649.00 435.00 L 1649.00 434.00 L 1654.00 429.00 L 1654.00 428.00 L 1661.00 421.00 L 1661.00 420.00 L 1664.00 417.00 L 1664.00 416.00 L 1673.00 407.00 L 1673.00 406.00 L 1676.00 403.00 L 1676.00 402.00 L 1680.00 398.00 L 1680.00 397.00 L 1688.00 389.00 L 1688.00 388.00 L 1692.00 384.00 L 1692.00 383.00 L 1696.00 379.00 L 1696.00 378.00 L 1702.00 372.00 L 1702.00 371.00 L 1707.00 366.00 L 1707.00 365.00 L 1711.00 361.00 L 1711.00 357.00 L 1706.00 352.00 L 1706.00 351.00 L 1701.00 346.00 L 1701.00 345.00 L 1695.00 339.00 L 1695.00 338.00 L 1690.00 333.00 L 1690.00 332.00 L 1685.00 327.00 L 1685.00 326.00 L 1679.00 320.00 L 1679.00 319.00 L 1674.00 314.00 L 1674.00 313.00 L 1668.00 307.00 L 1668.00 306.00 L 1663.00 301.00 L 1663.00 300.00 L 1658.00 295.00 L 1658.00 294.00 L 1652.00 288.00 L 1652.00 287.00 L 1647.00 282.00 L 1647.00 281.00 L 1641.00 275.00 L 1641.00 274.00 L 1640.00 273.00 L 1636.00 273.00 L 1634.00 275.00 L 1634.00 276.00 L 1630.00 280.00 L 1630.00 281.00 L 1626.00 285.00 L 1626.00 286.00 L 1618.00 294.00 L 1618.00 295.00 L 1615.00 298.00 L 1615.00 299.00 L 1610.00 304.00 L 1610.00 305.00 L 1604.00 311.00 L 1604.00 312.00 L 1599.00 317.00 L 1599.00 318.00 L 1595.00 322.00 L 1595.00 323.00 L 1590.00 328.00 L 1590.00 329.00 L 1584.00 335.00 L 1584.00 336.00 L 1580.00 340.00 L 1580.00 341.00 L 1573.00 348.00 L 1573.00 349.00 L 1568.00 354.00 L 1568.00 355.00 L 1564.00 359.00 L 1564.00 360.00 L 1557.00 367.00 L 1557.00 368.00 L 1553.00 372.00 L 1553.00 373.00 L 1549.00 377.00 L 1549.00 378.00 L 1541.00 386.00 L 1541.00 387.00 L 1538.00 390.00 L 1538.00 391.00 L 1532.00 397.00 L 1532.00 398.00 L 1526.00 404.00 L 1526.00 405.00 L 1522.00 409.00 L 1521.00 408.00 L 1521.00 150.00 L 1512.00 141.00 L 1512.00 140.00 L 1508.00 136.00 L 1425.00 136.00 L 1424.00 135.00 Z" fill="#FFA3A3" stroke="none" />
</svg>
